<svg width="4400" height="1429" xmlns="http://www.w3.org/2000/svg" xmlns:xlink="http://www.w3.org/1999/xlink" overflow="hidden"><defs><clipPath id="clip0"><rect x="0" y="260" width="4400" height="1429"/></clipPath></defs><g clip-path="url(#clip0)" transform="matrix(1 0 0 1 0 -260)"><rect x="0" y="260" width="4400" height="1429" fill="#7F7F7F"/><path d="M1680 816C1680 528.812 1912.81 296 2200 296 2487.19 296 2720 528.812 2720 816 2720 1103.19 2487.19 1336 2200 1336 1912.81 1336 1680 1103.19 1680 816Z" fill="#5B9BD5" fill-rule="evenodd"/><path d="M2200 296C1913.18 296 1681 528.408 1681 815.5 1681 1102.59 1913.18 1335 2200 1335 2486.82 1335 2719 1102.59 2719 815.5 2719 528.408 2486.82 296 2200 296ZM2200 1280.32C1944.6 1280.32 1735.63 1071.15 1735.63 815.5 1735.63 808.665 1735.63 803.196 1735.63 796.361L1754.75 771.753C1760.22 764.917 1768.41 760.816 1776.61 760.816L1823.04 760.816C1828.51 760.816 1832.6 763.55 1835.33 769.018L1884.5 867.45C1885.87 870.184 1887.23 871.551 1888.6 872.919L1904.99 883.855C1914.55 889.324 1926.84 883.855 1926.84 872.919L1926.84 827.804C1926.84 820.969 1929.57 814.133 1935.04 808.665L1970.55 773.12C1976.01 767.651 1985.57 767.651 1991.03 774.487L2032.01 826.437C2034.74 829.171 2038.84 831.905 2042.93 831.905L2052.49 831.905C2059.32 831.905 2066.15 834.64 2071.62 840.108L2082.54 851.045C2088.01 856.513 2094.83 859.248 2101.66 859.248L2104.39 859.248C2112.59 859.248 2118.05 853.779 2118.05 845.577L2118.05 812.766C2118.05 807.298 2115.32 803.196 2109.86 800.462L2097.57 794.994C2093.47 792.259 2089.37 788.158 2089.37 782.689L2089.37 760.816C2089.37 752.613 2094.83 747.145 2103.03 747.145L2137.17 747.145C2141.27 747.145 2145.37 744.411 2148.1 741.676L2167.22 712.967C2169.95 708.866 2171.32 703.397 2171.32 697.929L2171.32 669.22C2171.32 666.486 2171.32 665.119 2169.95 662.384L2160.39 621.371C2159.03 614.536 2161.76 609.067 2167.22 606.333L2174.05 603.599C2180.88 600.865 2187.71 602.232 2191.81 607.7 2191.81 607.7 2204.1 633.675 2212.29 639.144 2215.02 640.511 2223.22 641.878 2225.95 639.144 2234.14 630.941 2231.41 603.599 2228.68 585.827 2227.32 576.257 2231.41 566.687 2239.61 559.851L2275.12 532.509C2279.22 529.775 2280.58 525.674 2280.58 521.572L2280.58 514.737C2280.58 506.534 2286.04 501.066 2294.24 501.066 2302.43 501.066 2307.9 495.597 2307.9 487.395L2307.9 484.66C2307.9 477.825 2303.8 472.357 2296.97 470.989L2272.39 465.521C2262.83 462.787 2258.73 451.85 2264.19 443.647L2280.58 421.774C2288.78 410.837 2301.07 405.368 2313.36 405.368L2355.7 405.368C2366.63 405.368 2376.19 398.533 2380.28 388.963 2548.28 460.053 2664.37 624.105 2664.37 815.5 2664.37 1071.15 2455.4 1280.32 2200 1280.32Z" fill="#4C3A00" fill-rule="evenodd"/><path d="M2433.56 1094.77C2432.19 1092.04 2430.82 1087.94 2428.09 1085.2L2374.76 1004.54C2367.93 993.607 2350.15 997.709 2350.15 1011.38L2350.15 1020.95C2350.15 1029.15 2344.68 1034.62 2336.48 1034.62L2331.01 1034.62C2325.54 1034.62 2321.44 1031.89 2318.7 1026.42L2307.77 1003.18C2302.3 993.607 2288.62 993.607 2283.15 1003.18L2272.22 1015.48C2269.48 1018.22 2265.38 1019.58 2262.65 1019.58L2253.07 1019.58C2246.24 1019.58 2239.4 1022.32 2233.93 1027.78L2179.24 1071.53C2168.3 1081.1 2165.57 1097.51 2173.77 1108.44L2209.32 1167.23C2218.89 1182.27 2239.4 1185 2251.71 1172.7L2277.69 1146.72C2287.26 1137.15 2303.66 1135.78 2314.6 1145.35L2359.72 1182.27C2362.46 1183.63 2365.19 1185 2367.93 1185L2404.85 1185C2413.05 1185 2418.52 1179.53 2418.52 1171.33L2418.52 1152.19C2418.52 1146.72 2421.25 1142.62 2426.72 1139.89L2436.29 1135.78C2441.76 1133.05 2445.86 1126.22 2443.13 1119.38L2433.56 1094.77Z" fill="#7F6000" fill-rule="evenodd"/><path d="M2282 911.617 2316.06 956.553C2320.15 962 2326.96 963.362 2332.41 960.639L2350.13 952.468 2373.29 960.639C2381.46 963.362 2391 956.553 2391 948.383L2391 948.383C2391 942.936 2388.28 938.851 2384.19 936.128L2325.6 900.723C2324.24 898 2321.51 898 2318.79 898L2282 898 2282 911.617Z" fill="#548235" fill-rule="evenodd"/><path d="M2176.3 922.52 2184.49 892.251C2185.85 888.123 2184.49 882.62 2180.4 879.868 2176.3 875.74 2168.12 874.365 2162.66 878.492L2135.37 899.13C2127.19 904.634 2128.55 918.392 2138.1 922.52L2157.2 932.151C2165.39 934.903 2173.57 930.775 2176.3 922.52Z" fill="#548235" fill-rule="evenodd"/><path d="M2045.29 891.472C2039.81 887.378 2032.96 888.742 2027.48 892.837L2022 898.297 2102.83 965.18C2104.2 966.545 2105.57 966.545 2106.94 967.91L2137.08 977.465C2142.56 978.83 2148.04 977.465 2150.78 974.735L2159 966.545C2101.46 950.165 2045.29 891.472 2045.29 891.472Z" fill="#548235" fill-rule="evenodd"/><path d="M2241.07 679.637C2277.89 654.806 2320.16 625.835 2309.25 583.069 2307.89 580.31 2296.98 580.31 2295.62 583.069 2290.16 607.901 2284.71 628.594 2227.43 665.842 2224.7 668.601 2235.61 682.396 2241.07 679.637Z" fill="#548235" fill-rule="evenodd"/><path d="M2200.5 348.162C1941.84 348.162 1732.16 557.844 1732.16 816.5 1732.16 1075.16 1941.84 1284.84 2200.5 1284.84 2459.16 1284.84 2668.84 1075.16 2668.84 816.5 2668.84 557.844 2459.16 348.162 2200.5 348.162ZM2200.5 296.5C2487.69 296.5 2720.5 529.312 2720.5 816.5 2720.5 1103.69 2487.69 1336.5 2200.5 1336.5 1913.31 1336.5 1680.5 1103.69 1680.5 816.5 1680.5 529.312 1913.31 296.5 2200.5 296.5Z" stroke="#000000" stroke-width="4.58333" stroke-miterlimit="8" fill-rule="evenodd"/></g></svg>