<svg width="1247" height="541" xmlns="http://www.w3.org/2000/svg" xmlns:xlink="http://www.w3.org/1999/xlink" overflow="hidden"><defs><clipPath id="clip0"><rect x="2614" y="347" width="1247" height="541"/></clipPath><clipPath id="clip1"><rect x="2644" y="377" width="131" height="131"/></clipPath><clipPath id="clip2"><rect x="2644" y="377" width="131" height="131"/></clipPath><clipPath id="clip3"><rect x="2644" y="377" width="131" height="131"/></clipPath></defs><g clip-path="url(#clip0)" transform="translate(-2614 -347)"><rect x="2709.5" y="377.5" width="1148" height="507" stroke="#000000" stroke-width="6.875" stroke-miterlimit="8" fill="#FFFFFF"/><text font-family="Courier New,Courier New_MSFontService,sans-serif" font-weight="400" font-size="64" transform="matrix(1 0 0 1 2818.61 495)">/API/countries<tspan font-size="64" x="0" y="77">/API/</tspan><tspan font-size="64" x="191.927" y="77">earthquakes</tspan><tspan font-size="64" x="0" y="154">/API/</tspan><tspan font-size="64" x="191.927" y="154">gdp</tspan><tspan font-size="64" x="0" y="231">/API/</tspan><tspan font-size="64" x="191.927" y="231">countries_</tspan><tspan font-size="64" x="575.781" y="231">earthquakes</tspan><tspan font-size="64" x="0" y="308">/API/</tspan><tspan font-size="64" x="191.927" y="308">countries_GD</tspan><tspan font-size="64" x="652.552" y="308">P</tspan></text><path d="M2617.5 442.5C2617.5 391.69 2658.69 350.5 2709.5 350.5 2760.31 350.5 2801.5 391.69 2801.5 442.5 2801.5 493.31 2760.31 534.5 2709.5 534.5 2658.69 534.5 2617.5 493.31 2617.5 442.5Z" stroke="#000000" stroke-width="6.875" stroke-miterlimit="8" fill="#FFFFFF" fill-rule="evenodd"/><g clip-path="url(#clip1)"><g clip-path="url(#clip2)"><g clip-path="url(#clip3)"><path d="M2675.15 488.042 2675.15 395.958 2709 395.958 2709 424.396 2742.85 424.396 2742.85 488.042 2675.15 488.042ZM2717.13 399.344 2734.05 416.271 2717.13 416.271 2717.13 399.344ZM2717.13 387.833 2667.02 387.833 2667.02 496.167 2750.98 496.167 2750.98 417.625 2717.13 387.833Z"/><path d="M2683.27 437.938 2734.73 437.938 2734.73 443.354 2683.27 443.354Z"/><path d="M2683.27 427.104 2700.88 427.104 2700.88 432.521 2683.27 432.521Z"/><path d="M2683.27 448.771 2734.73 448.771 2734.73 454.188 2683.27 454.188Z"/><path d="M2683.27 459.604 2734.73 459.604 2734.73 465.021 2683.27 465.021Z"/><path d="M2683.27 470.438 2734.73 470.438 2734.73 475.854 2683.27 475.854Z"/></g></g></g></g></svg>