<svg width="4400" height="1429" xmlns="http://www.w3.org/2000/svg" xmlns:xlink="http://www.w3.org/1999/xlink" overflow="hidden"><defs><clipPath id="clip0"><rect x="0" y="260" width="4400" height="1429"/></clipPath></defs><g clip-path="url(#clip0)" transform="matrix(1 0 0 1 0 -260)"><rect x="0" y="260" width="4400" height="1429" fill="#BFBFBF"/><path d="M2523.5 509.092 2523.5 1215.24 2548.18 1242.99 2631.46 1273.83 2754.84 1295.42 2918.32 1298.5 3069.46 1276.91 3168.16 1236.83 3180.5 1221.41C3179.47 979.859 3178.44 738.309 3177.42 496.758L3140.4 462.838 3044.78 435.086 2927.57 419.667 2844.29 416.584 2745.58 413.5 2631.46 438.169 2563.6 456.671 2523.5 509.092Z" stroke="#FFFFFF" stroke-width="4.58333" stroke-miterlimit="8" fill="#FFFFFF" fill-rule="evenodd"/><path d="M1197.5 416.5C1198.53 710.776 1199.56 1005.05 1200.58 1299.33L1863.5 1305.5 1857.33 648.011 1610.67 416.5 1197.5 416.5Z" stroke="#FFFFFF" stroke-width="4.58333" stroke-miterlimit="8" fill="#FFFFFF" fill-rule="evenodd"/><path d="M1187 403 1187 1313 1869 1313 1869 648.541 1623.64 403ZM1630.49 442.027 1830 641.682C1830.05 641.726 1830.04 641.799 1830 641.842 1829.98 641.862 1829.95 641.875 1829.92 641.875L1630.3 641.875 1630.3 442.107C1630.3 442.044 1630.35 441.994 1630.41 441.994 1630.44 441.996 1630.47 442.007 1630.49 442.027ZM1209.73 1290.25 1209.73 425.75 1607.57 425.75 1607.57 664.625 1846.27 664.625 1846.27 1290.25Z" stroke="#000000" stroke-width="13.75" stroke-miterlimit="8" fill-rule="evenodd"/><text font-family="Courier New,Courier New_MSFontService,sans-serif" font-weight="400" font-size="458" transform="matrix(1 0 0 1 1250.1 1011)">{}</text><path d="M3188 1208 3188 508C3188 439.797 3013.86 403 2850 403 2686.14 403 2512 439.797 2512 508L2512 1208C2512 1276.2 2686.14 1313 2850 1313 3013.86 1313 3188 1276.2 3188 1208ZM2850 426.333C3030.11 426.333 3164.69 469.501 3164.69 508 3164.69 546.499 3030.11 589.667 2850 589.667 2669.89 589.667 2535.31 546.499 2535.31 508 2535.31 469.501 2669.89 426.333 2850 426.333ZM2535.31 548.366C2588.1 590.6 2722.18 613 2850 613 2977.82 613 3111.9 590.6 3164.69 548.366L3164.69 741.333C3164.69 779.834 3030.11 823 2850 823 2669.89 823 2535.31 779.834 2535.31 741.333ZM2535.31 781.701C2588.1 823.933 2722.18 846.333 2850 846.333 2977.82 846.333 3111.9 823.933 3164.69 781.701L3164.69 974.667C3164.69 1013.17 3030.11 1056.33 2850 1056.33 2669.89 1056.33 2535.31 1013.17 2535.31 974.667ZM2535.31 1208 2535.31 1015.03C2588.1 1057.27 2722.18 1079.67 2850 1079.67 2977.82 1079.67 3111.9 1057.27 3164.69 1015.03L3164.69 1208C3164.69 1246.5 3030.11 1289.67 2850 1289.67 2669.89 1289.67 2535.31 1246.5 2535.31 1208Z" fill-rule="evenodd"/><path d="M3106 706.5C3106 719.479 3095.7 730 3083 730 3070.3 730 3060 719.479 3060 706.5 3060 693.521 3070.3 683 3083 683 3095.7 683 3106 693.521 3106 706.5Z" fill-rule="evenodd"/><path d="M3106 939.5C3106 952.479 3095.7 963 3083 963 3070.3 963 3060 952.479 3060 939.5 3060 926.521 3070.3 916 3083 916 3095.7 916 3106 926.521 3106 939.5Z" fill-rule="evenodd"/><path d="M3106 1173C3106 1185.7 3095.7 1196 3083 1196 3070.3 1196 3060 1185.7 3060 1173 3060 1160.3 3070.3 1150 3083 1150 3095.7 1150 3106 1160.3 3106 1173Z" fill-rule="evenodd"/><path d="M2023.5 683.5 2065.44 683.5 2227.5 856.5 2065.44 1029.5 2023.5 1029.5 2185.56 856.5Z" stroke="#000000" stroke-width="4.58333" stroke-miterlimit="8" fill-rule="evenodd"/><path d="M2166.5 683.5 2208.24 683.5 2369.5 856.5 2208.24 1029.5 2166.5 1029.5 2327.76 856.5Z" stroke="#000000" stroke-width="4.58333" stroke-miterlimit="8" fill-rule="evenodd"/></g></svg>