<svg width="4400" height="1429" xmlns="http://www.w3.org/2000/svg" xmlns:xlink="http://www.w3.org/1999/xlink" overflow="hidden"><defs><clipPath id="clip0"><rect x="0" y="260" width="4400" height="1429"/></clipPath></defs><g clip-path="url(#clip0)" transform="matrix(1 0 0 1 0 -260)"><rect x="0" y="260" width="4400" height="1429" fill="#7F7F7F"/><path d="M2200.51 296.498 2648.51 556.957 2648.51 1076.04 2200.51 1336.5 1752.51 1076.04 1752.51 556.957Z" stroke="#000000" stroke-width="4.58333" stroke-miterlimit="8" fill="#27292C" fill-rule="evenodd"/><path d="M2200.51 348.498 2604.51 583.061 2604.51 1049.93 2200.51 1284.5 1796.51 1049.93 1796.51 583.061Z" stroke="#B8A897" stroke-width="4.58333" stroke-miterlimit="8" fill="#B8A897" fill-rule="evenodd"/><path d="M2200.51 383.498 2575.51 600.937 2575.51 1032.06 2200.51 1249.5 1825.51 1032.06 1825.51 600.937Z" stroke="#27292C" stroke-width="4.58333" stroke-miterlimit="8" fill="#27292C" fill-rule="evenodd"/><path d="M2200.51 434.498 2529.51 625.476 2529.51 1007.52 2200.51 1198.5 1871.51 1007.52 1871.51 625.476Z" stroke="#557AA4" stroke-width="4.58333" stroke-miterlimit="8" fill="#557AA4" fill-rule="evenodd"/><path d="M2199.97 653.498C2244.83 653.498 2285.45 671.799 2314.85 701.387L2332.51 722.926 2260.19 778.961 2259.07 776.89C2246.26 757.811 2224.57 745.265 2199.97 745.265 2160.6 745.265 2128.69 777.381 2128.69 816.998 2128.69 856.614 2160.6 888.73 2199.97 888.73 2224.57 888.73 2246.26 876.186 2259.07 857.105L2260.19 855.036 2332.51 911.071 2314.85 932.61C2285.45 962.197 2244.83 980.498 2199.97 980.498 2110.24 980.498 2037.51 907.295 2037.51 816.998 2037.51 726.7 2110.24 653.498 2199.97 653.498Z" stroke="#27292C" stroke-width="4.58333" stroke-miterlimit="8" fill="#27292C" fill-rule="evenodd"/><path d="M2037.51 816.498 2128.51 816.498 2128.51 1167.5 2037.51 1113.29Z" stroke="#27292C" stroke-width="4.58333" stroke-miterlimit="8" fill="#27292C" fill-rule="evenodd"/><path d="M2355.65 722.498 2357.83 725.154C2375.3 751.229 2385.51 782.661 2385.51 816.498 2385.51 850.334 2375.3 881.767 2357.83 907.842L2355.65 910.498 2283.51 854.507 2288.95 844.397C2292.55 835.823 2294.54 826.394 2294.54 816.498 2294.54 806.6 2292.55 797.172 2288.95 788.596L2283.51 778.488Z" stroke="#27292C" stroke-width="4.58333" stroke-miterlimit="8" fill="#27292C" fill-rule="evenodd"/></g></svg>