<svg width="1247" height="360" xmlns="http://www.w3.org/2000/svg" xmlns:xlink="http://www.w3.org/1999/xlink" overflow="hidden"><defs><clipPath id="clip0"><rect x="2744" y="1516" width="1247" height="360"/></clipPath><clipPath id="clip1"><rect x="2778" y="1545" width="132" height="132"/></clipPath><clipPath id="clip2"><rect x="2778" y="1545" width="132" height="132"/></clipPath><clipPath id="clip3"><rect x="2778" y="1545" width="132" height="132"/></clipPath></defs><g clip-path="url(#clip0)" transform="translate(-2744 -1516)"><rect x="2839.5" y="1546.5" width="1148" height="326" stroke="#000000" stroke-width="6.875" stroke-miterlimit="8" fill="#FFFFFF"/><text font-family="Courier New,Courier New_MSFontService,sans-serif" font-weight="400" font-size="64" transform="matrix(1 0 0 1 2948.83 1650)">Bar chart<tspan font-size="64" x="0" y="77">Map</tspan><tspan font-size="64" x="0" y="154">Violin chart</tspan></text><path d="M2747.5 1611.5C2747.5 1560.69 2788.69 1519.5 2839.5 1519.5 2890.31 1519.5 2931.5 1560.69 2931.5 1611.5 2931.5 1662.31 2890.31 1703.5 2839.5 1703.5 2788.69 1703.5 2747.5 1662.31 2747.5 1611.5Z" stroke="#000000" stroke-width="6.875" stroke-miterlimit="8" fill="#FFFFFF" fill-rule="evenodd"/><g clip-path="url(#clip1)"><g clip-path="url(#clip2)"><g clip-path="url(#clip3)"><path d="M27.0834 18.9584 18.9584 18.9584 18.9584 111.042 111.042 111.042 111.042 102.917 27.0834 102.917Z" transform="matrix(-6.12323e-17 -1 -1 6.12323e-17 2909 1676)"/><path d="M35.2084 47.3959 50.1043 47.3959 50.1043 94.7919 35.2084 94.7919Z" transform="matrix(-6.12323e-17 -1 -1 6.12323e-17 2909 1676)"/><path d="M55.521 18.9584 70.4168 18.9584 70.4168 94.7919 55.521 94.7919Z" transform="matrix(-6.12323e-17 -1 -1 6.12323e-17 2909 1676)"/><path d="M75.8335 47.3959 90.7294 47.3959 90.7294 94.7919 75.8335 94.7919Z" transform="matrix(-6.12323e-17 -1 -1 6.12323e-17 2909 1676)"/><path d="M96.146 70.4168 111.042 70.4168 111.042 94.7919 96.146 94.7919Z" transform="matrix(-6.12323e-17 -1 -1 6.12323e-17 2909 1676)"/></g></g></g></g></svg>